<svg width="105" height="44" viewBox="0 0 105 44" fill="none" xmlns="http://www.w3.org/2000/svg">
<path d="M46.844 3.20361H65.417V8.42584H54.3867V12.6686H63.8059V17.575H54.3867V27.5069H46.844V3.20361Z" fill="white"/>
<path d="M68.3945 3.20361H75.9235V27.5115H68.3945V3.20361Z" fill="white"/>
<path d="M78.9792 3.20361H87.2542L91.5565 10.6822L95.7443 3.20361H103.937L96.3713 14.9754L104.651 27.5115H96.2066L91.4054 19.7033L86.6043 27.5115H78.2148L86.5997 14.8426L78.9792 3.20361Z" fill="white"/>
<path d="M46.8867 30.2812H49.7564V37.2839H54.2372V39.5723H46.8867V30.2812Z" fill="white"/>
<path d="M54.6635 34.9313C54.6635 33.4056 55.0861 32.2248 55.9313 31.3888C56.7765 30.5527 57.9528 30.1271 59.4601 30.1118C61.0071 30.1118 62.1986 30.5268 63.0346 31.3567C63.8707 32.1867 64.2887 33.3492 64.2887 34.8443C64.3239 35.7665 64.1355 36.6836 63.7395 37.5172C63.3831 38.2018 62.8321 38.7655 62.1559 39.1374C61.3599 39.551 60.471 39.7527 59.5745 39.7233C58.6815 39.7543 57.7929 39.5838 56.9748 39.2244C56.2718 38.8759 55.6898 38.3242 55.3043 37.6408C54.8511 36.8116 54.6298 35.8756 54.6635 34.9313V34.9313ZM57.5332 34.9313C57.4638 35.6532 57.6483 36.3767 58.055 36.9771C58.2302 37.1806 58.4494 37.3415 58.696 37.4478C58.9426 37.554 59.2102 37.6028 59.4784 37.5904C59.7481 37.6042 60.0174 37.5561 60.2657 37.4498C60.514 37.3435 60.7347 37.1818 60.911 36.9771C61.2496 36.5744 61.419 35.8543 61.419 34.8169C61.4764 34.1348 61.2881 33.4546 60.8881 32.8991C60.7077 32.6989 60.4854 32.5409 60.237 32.4364C59.9886 32.332 59.7202 32.2837 59.4509 32.295C59.1908 32.2883 58.9325 32.3399 58.6949 32.446C58.4573 32.5521 58.2465 32.7101 58.0779 32.9083C57.7148 33.3202 57.5332 33.9991 57.5332 34.945V34.9313Z" fill="white"/>
<path d="M71.3719 30.2812H74.2371V35.8193C74.2407 36.3488 74.154 36.875 73.9808 37.3754C73.8134 37.8584 73.5379 38.2967 73.1752 38.6569C72.8484 38.9938 72.4515 39.2547 72.0127 39.4213C71.3666 39.6428 70.6863 39.7482 70.0034 39.7325C69.5092 39.7294 69.0156 39.6973 68.5251 39.6364C68.0591 39.5934 67.6047 39.4662 67.1841 39.2611C66.8081 39.0591 66.4741 38.7873 66.2001 38.4601C65.9288 38.1488 65.7261 37.7839 65.6051 37.3892C65.4415 36.8814 65.3521 36.3526 65.3396 35.8193V30.2812H68.2047V35.9474C68.1921 36.1631 68.2228 36.3792 68.2952 36.5828C68.3675 36.7864 68.4799 36.9735 68.6258 37.1328C68.9541 37.4045 69.3668 37.5531 69.7929 37.5531C70.219 37.5531 70.6317 37.4045 70.96 37.1328C71.107 36.9724 71.2201 36.7838 71.2925 36.5786C71.3649 36.3733 71.395 36.1555 71.3811 35.9383L71.3719 30.2812Z" fill="white"/>
<path d="M75.6279 30.2812H78.31L81.8067 35.4211V30.2812H84.5117V39.5723H81.8067L78.3283 34.4691V39.5723H75.6279V30.2812Z" fill="white"/>
<path d="M90.5736 36.2078V34.2764H95.0086V38.2354C94.3171 38.7326 93.5591 39.1302 92.7568 39.4162C92.0026 39.6405 91.2184 39.747 90.4317 39.732C89.5004 39.7699 88.5743 39.5764 87.736 39.169C87.0371 38.7891 86.4728 38.2024 86.1203 37.4893C85.7269 36.6948 85.5307 35.8173 85.5482 34.9309C85.5306 34.0066 85.7529 33.0935 86.1935 32.2808C86.6082 31.5316 87.249 30.9326 88.0243 30.5691C88.8276 30.2334 89.6945 30.0771 90.5645 30.1114C91.3374 30.0799 92.1103 30.1742 92.8529 30.3906C93.3435 30.5638 93.7805 30.862 94.1207 31.2556C94.4783 31.6902 94.7361 32.198 94.8759 32.7431L92.1069 33.2374C92.0105 32.9106 91.8054 32.6264 91.5256 32.4319C91.2138 32.236 90.8501 32.1387 90.4821 32.1527C90.1979 32.1409 89.9148 32.1936 89.654 32.307C89.3932 32.4203 89.1615 32.5914 88.9763 32.8072C88.5521 33.4113 88.3529 34.1448 88.4133 34.8805C88.4133 35.8874 88.6025 36.606 88.9809 37.0362C89.1798 37.2541 89.4247 37.425 89.6978 37.5366C89.9708 37.6482 90.2653 37.6977 90.5599 37.6816C90.8703 37.6834 91.1791 37.6371 91.4753 37.5443C91.8253 37.4294 92.1615 37.2759 92.4776 37.0866V36.2124L90.5736 36.2078Z" fill="white"/>
<path d="M96.1917 30.2812H103.885V32.263H99.0705V33.7414H103.538V35.6362H99.0705V37.467H104.046V39.5723H96.1917V30.2812Z" fill="white"/>
<path d="M21.7356 0C17.4367 0 13.2344 1.27477 9.65997 3.66311C6.08556 6.05146 3.29965 9.4461 1.65454 13.4178C0.00941795 17.3894 -0.42102 21.7597 0.417654 25.976C1.25633 30.1923 3.32645 34.0653 6.36623 37.105C9.40601 40.1448 13.2789 42.2149 17.4952 43.0536C21.7115 43.8923 26.0818 43.4619 30.0535 41.8167C34.0252 40.1716 37.4198 37.3857 39.8082 33.8113C42.1965 30.2369 43.4713 26.0345 43.4713 21.7356C43.4713 15.971 41.1813 10.4424 37.105 6.36622C33.0288 2.29 27.5003 0 21.7356 0V0ZM27.6856 23.4748C28.633 24.4314 29.6399 25.1729 29.9054 25.15H30.1617C31.1574 25.15 32.1308 25.4453 32.9587 25.9985C33.7867 26.5517 34.432 27.338 34.813 28.2579C35.1941 29.1779 35.2938 30.1901 35.0995 31.1668C34.9053 32.1434 34.4258 33.0404 33.7217 33.7445C33.0176 34.4486 32.1205 34.9281 31.1439 35.1224C30.1673 35.3167 29.155 35.217 28.235 34.8359C27.3151 34.4548 26.5288 33.8096 25.9756 32.9816C25.4224 32.1537 25.1271 31.1803 25.1271 30.1846V29.9283C25.1637 29.6536 24.4085 28.6467 23.452 27.6902C22.9898 27.2307 22.3645 26.9728 21.7128 26.9728C21.061 26.9728 20.4358 27.2307 19.9735 27.6902C19.017 28.6467 18.2618 29.6536 18.2984 29.9283V30.1846C18.2984 31.1803 18.0031 32.1537 17.4499 32.9816C16.8967 33.8096 16.1104 34.4548 15.1905 34.8359C14.2705 35.217 13.2582 35.3167 12.2816 35.1224C11.305 34.9281 10.4079 34.4486 9.70384 33.7445C8.99974 33.0404 8.52025 32.1434 8.32599 31.1668C8.13173 30.1901 8.23143 29.1779 8.61248 28.2579C8.99354 27.338 9.63883 26.5517 10.4668 25.9985C11.2947 25.4453 12.2681 25.15 13.2638 25.15H13.5201C13.7947 25.1866 14.8017 24.4314 15.7582 23.4748C16.2177 23.0126 16.4756 22.3874 16.4756 21.7356C16.4756 21.0839 16.2177 20.4586 15.7582 19.9964C14.8383 19.0398 13.8314 18.3075 13.5567 18.3075H13.3004C12.3047 18.3075 11.3313 18.0123 10.5034 17.4591C9.67545 16.9059 9.03015 16.1196 8.6491 15.1996C8.26804 14.2797 8.16834 13.2674 8.3626 12.2908C8.55686 11.3142 9.03636 10.4171 9.74046 9.71299C10.4446 9.00889 11.3416 8.52939 12.3182 8.33513C13.2949 8.14087 14.3071 8.24057 15.2271 8.62163C16.147 9.00268 16.9333 9.64798 17.4865 10.4759C18.0397 11.3038 18.335 12.2772 18.335 13.273V13.5293C18.2984 13.8039 19.0536 14.8108 20.0102 15.7674C20.4724 16.2269 21.0976 16.4848 21.7494 16.4848C22.4011 16.4848 23.0264 16.2269 23.4886 15.7674C24.4452 14.8108 25.2003 13.8039 25.1637 13.5293V13.273C25.1637 12.2772 25.459 11.3038 26.0122 10.4759C26.5654 9.64798 27.3517 9.00268 28.2717 8.62163C29.1916 8.24057 30.2039 8.14087 31.1805 8.33513C32.1571 8.52939 33.0542 9.00889 33.7583 9.71299C34.4624 10.4171 34.9419 11.3142 35.1361 12.2908C35.3304 13.2674 35.2307 14.2797 34.8496 15.1996C34.4686 16.1196 33.8233 16.9059 32.9954 17.4591C32.1674 18.0123 31.194 18.3075 30.1983 18.3075H29.9054C29.6308 18.2709 28.6239 19.0261 27.6673 19.9827C27.4383 20.2124 27.2569 20.4851 27.1334 20.785C27.0099 21.0849 26.9468 21.4063 26.9476 21.7307C26.9485 22.055 27.0133 22.376 27.1383 22.6753C27.2634 22.9746 27.4463 23.2463 27.6764 23.4748H27.6856Z" fill="white"/>
</svg>
