<svg width="17" height="16" viewBox="0 0 17 16" fill="none" xmlns="http://www.w3.org/2000/svg">
<path fill-rule="evenodd" clip-rule="evenodd" d="M3.56253 6.97812C4.90013 9.3679 7.05515 11.3186 9.68391 12.543L11.7275 10.6852C11.9783 10.4572 12.3498 10.3812 12.6749 10.4826C13.7153 10.795 14.8392 10.9639 15.9911 10.9639C16.502 10.9639 16.92 11.3439 16.92 11.8083V14.7555C16.92 15.2199 16.502 15.5999 15.9911 15.5999C7.26879 15.5999 0.199951 9.17368 0.199951 1.24435C0.199951 0.779902 0.617951 0.399902 1.12884 0.399902H4.37995C4.89084 0.399902 5.30884 0.779902 5.30884 1.24435C5.30884 2.2999 5.49462 3.31324 5.83831 4.25901C5.94049 4.55457 5.86617 4.8839 5.60608 5.12035L3.56253 6.97812Z" fill="white"/>
</svg>
