<svg width="12" height="12" viewBox="0 0 12 12" fill="none" xmlns="http://www.w3.org/2000/svg">
<path fill-rule="evenodd" clip-rule="evenodd" d="M1 8H8.5V9.5H1V8ZM10.25 8H11V9.5H10.25V8ZM9 8H9.75V9.5H9V8ZM9.425 3.865C9.735 3.56 9.925 3.14 9.925 2.675C9.925 1.75 9.175 1 8.25 1V1.75C8.76 1.75 9.175 2.165 9.175 2.675C9.175 3.185 8.76 3.6 8.25 3.6V4.35C9.37 4.35 10.25 5.265 10.25 6.385V7.5H11V6.38C11 5.27 10.36 4.31 9.425 3.865V3.865ZM8.01501 5.09998H7.25001C6.74001 5.09998 6.32501 4.60998 6.32501 4.09998C6.32501 3.58998 6.74001 3.22498 7.25001 3.22498V2.47498C6.32501 2.47498 5.57501 3.22498 5.57501 4.14998C5.57501 5.07498 6.32501 5.82498 7.25001 5.82498H8.01501C8.54001 5.82498 9.00001 6.19498 9.00001 6.84998V7.49998H9.75001V6.67998C9.75001 5.77498 8.95001 5.09998 8.01501 5.09998V5.09998Z" fill="white"/>
</svg>
