<svg width="13" height="13" viewBox="0 0 13 13" fill="none" xmlns="http://www.w3.org/2000/svg">
<path fill-rule="evenodd" clip-rule="evenodd" d="M8.77094 5.15943H3.61155V6.19131H8.77094V5.15943V5.15943ZM9.80285 1.54783H9.28691V0.515951H8.25504V1.54783H4.12752V0.515951H3.09564V1.54783H2.5797C2.00701 1.54783 1.55298 2.01218 1.55298 2.57971L1.54782 9.80286C1.54782 10.3704 2.00701 10.8347 2.5797 10.8347H9.80285C10.3704 10.8347 10.8347 10.3704 10.8347 9.80286V2.57971C10.8347 2.01218 10.3704 1.54783 9.80285 1.54783V1.54783ZM9.80282 9.80288H2.57967V4.12755H9.80282V9.80288V9.80288ZM7.22312 7.22319H3.61155V8.25507H7.22312V7.22319V7.22319Z" fill="white"/>
</svg>
